{"title":"Avicii - Hey Brother 720p x264 AAC E-Subs [GWC].mp4","uid":9328754,"size":50123070,"categoryP":"video","categoryS":"music_videos","magnet":"?xt=urn:btih:f11650fd910a98532c569a762ef228cb4f1893bc&amp;dn=Avicii+-+Hey+Brother+720p+x264+AAC+E-Subs+%5BGWC%5D.mp4&amp;tr=udp%3A%2F%2Ftracker.openbittorrent.com%3A80&amp;tr=udp%3A%2F%2Fopen.demonii.com%3A1337&amp;tr=udp%3A%2F%2Ftracker.coppersurfer.tk%3A6969&amp;tr=udp%3A%2F%2Fexodus.desync.com%3A6969","seeders":0,"leechers":0,"uploader":"canc232","files":1,"time":1386691382,"description":"Avicii - Hey Brother 720p x264 AAC E-Subs [GWC] \n\n\n\n\nCOVER : &lt;a href=&quot;\nhttp://s20.postimg.org/65pxl5szh/add.jpg&quot; rel=&quot;nofollow&quot; target=&quot;_NEW&quot;&gt;\nhttp://s20.postimg.org/65pxl5szh/add.jpg&lt;/a&gt;\n\n\n\nTHUMBNAIL IMAGE : &lt;a href=&quot;\nhttp://img17.imageshack.us/img17/3087/xk4p.jpg&quot; rel=&quot;nofollow&quot; target=&quot;_NEW&quot;&gt;\nhttp://img17.imageshack.us/img17/3087/xk4p.jpg&lt;/a&gt;\n\n\n\n\n\nMEDIA INFO :\nGeneral\nFormat : MPEG-4 \nFormat profile : Base Media\nFile size : 47.8 MiB \nDuration : 4mn 23s \nOverall bit rate mode : Variable \nOverall bit rate : 1 524 Kbps\n\nVideo\nFormat : AVC\nFormat profile : &lt;a class=&quot;__cf_email__&quot; href=&quot;/cdn-cgi/l/email-protection&quot; data-cfemail=&quot;96defff1fed6daa5b8a7&quot;&gt;[email&amp;#160;protected]&lt;/a&gt;&lt;script data-cfhash='f9e31' type=&quot;text/javascript&quot;&gt;\n/* &lt;![CDATA[ */!function(){try{var t=&quot;currentScript&quot;in document?document.currentScript:function(){for(var t=document.getElementsByTagName(&quot;script&quot;),e=t.length;e--;)if(t[e].getAttribute(&quot;data-cfhash&quot;))return t[e]}();if(t&amp;&amp;t.previousSibling){var e,r,n,i,c=t.previousSibling,a=c.getAttribute(&quot;data-cfemail&quot;);if(a){for(e=&quot;&quot;,r=parseInt(a.substr(0,2),16),n=2;a.length-n;n+=2)i=parseInt(a.substr(n,2),16)^r,e+=String.fromCharCode(i);e=document.createTextNode(e),c.parentNode.replaceChild(e,c)}t.parentNode.removeChild(t);}}catch(u){}}()/* ]]&gt; */&lt;/script&gt; \nDuration : 4mn 22s \nSource duration : 4mn 22s \nBit rate : 1 439 Kbps \nWidth : 1 280 pixels \nHeight : 720 pixels \nDisplay aspect ratio : 16:9 \nFrame rate : 23.976 fps\nStream size : 45.1 MiB (94%)\nTitle : Avicii - Hey Brother 720p x264 AAC E-Subs [GWC]\n\nAudio \nFormat : AAC\nFormat profile : LC \nDuration : 4mn 23s \nBit rate mode : Variable \nChannel(s) : 2 channels \nSampling rate : 48.0 KHz \nStream size : 2.61 MiB\nLanguage : English \n\nText \nFormat : Timed Text \nDuration : 4mn 20s \nStream size : 2.00 KiB (0%) \nTitle : English Subtitle by [GWC]\nLanguage : English","torrent":{"xt":"urn:btih:f11650fd910a98532c569a762ef228cb4f1893bc","amp;dn":"Avicii+-+Hey+Brother+720p+x264+AAC+E-Subs+%5BGWC%5D.mp4","amp;tr":["udp%3A%2F%2Ftracker.openbittorrent.com%3A80","udp%3A%2F%2Fopen.demonii.com%3A1337","udp%3A%2F%2Ftracker.coppersurfer.tk%3A6969","udp%3A%2F%2Fexodus.desync.com%3A6969"],"infoHash":"f11650fd910a98532c569a762ef228cb4f1893bc","infoHashBuffer":{"type":"Buffer","data":[241,22,80,253,145,10,152,83,44,86,154,118,46,242,40,203,79,24,147,188]},"announce":[],"urlList":[]}}